<svg viewBox="0 0 200 70" fill="none" xmlns="http://www.w3.org/2000/svg">
<path d="M44.4433 21.5465C43.8685 20.6767 43.2936 19.7951 42.611 18.9605C42.108 18.3375 41.5211 17.738 40.7547 17.1502C39.8804 16.4802 38.8145 15.8572 37.581 15.3283V15.3165C36.4073 14.8228 35.0181 14.3879 33.4492 14.0823C31.6768 13.7414 29.8085 13.5651 27.9402 13.6121C26.1798 13.6473 24.3474 13.8707 22.539 14.3174C20.6947 14.764 18.9582 15.4105 17.557 16.2451C16.527 16.8564 15.7007 17.5499 15.1857 18.3022C14.7306 18.9605 14.4671 19.7833 14.3713 20.6532C13.9162 24.7085 18.551 26.2014 19.9402 26.4247C22.4552 27.0477 25.9043 27.5767 29.4013 28.1057V28.1292C33.7606 28.7874 38.1798 29.4575 41.6768 30.4214C45.617 31.5028 48.5751 32.9604 50.8146 34.6295C53.3895 36.5338 55.0302 38.6967 56.144 40.9066C57.2458 43.1047 57.7967 45.2911 57.9883 47.3717C58.1679 49.3347 58.0122 51.192 57.7248 52.8494C57.4254 54.5538 56.9344 56.1172 56.1559 57.7041C55.4014 59.244 54.4314 60.6663 53.138 62.1004C51.8565 63.5109 50.2278 65.0038 47.7966 66.3438C45.5571 67.5898 42.7307 68.6478 39.0421 69.2708C35.8085 69.8232 31.7007 70.0583 27.545 69.9878C23.4971 69.9173 19.3414 69.5294 15.8564 68.8358C9.03232 67.4779 4.16768 64.6747 0 62.0063L7.54494 50.6042C10.6228 52.579 13.7007 54.5421 18.563 55.506C21.2336 56.0349 24.5031 56.3288 27.7606 56.3876C31.0061 56.4463 34.2037 56.27 36.7068 55.8351C38.7307 55.4942 40.072 55.024 41.0181 54.5068C43.3774 53.202 44.3834 51.1097 44.1559 48.5354C44.108 47.9712 43.9762 47.4187 43.7247 46.925C43.4852 46.4548 43.102 45.9729 42.4673 45.4909C41.5092 44.7739 40.072 44.1039 37.9403 43.5161C35.0181 42.7168 31.1379 42.1173 27.2935 41.5413V41.5648C23.4971 40.9889 19.7366 40.4246 16.527 39.6136C12.5749 38.6262 9.56891 37.2979 7.22159 35.5582C4.46709 33.5246 2.7545 31.0796 1.66468 28.1409C0.658685 25.4256 0.251498 22.2753 0.598805 19.1956C0.92216 16.2686 1.91618 13.3182 3.68864 10.7204C5.37727 8.24016 7.71261 6.21834 10.4072 4.60794C13.1138 2.99754 16.1677 1.82207 19.2456 1.08152C22.0001 0.411498 24.8624 0.0706103 27.6887 0.0118366C30.6708 -0.0586918 33.5331 0.188158 36.1319 0.693612C38.6109 1.17556 40.9583 1.92786 43.114 2.84473H43.1379C45.5331 3.86739 47.605 5.07813 49.2936 6.37115C50.9942 7.66417 52.3236 9.05123 53.4733 10.4736C54.4553 11.6725 55.2577 12.9068 56.0721 14.1293L44.4553 21.5348L44.4433 21.5465Z" fill="#0D54C9"/>
<path d="M146.031 14.5419C146.54 13.4593 145.853 14.789 146.588 13.5417C147.334 12.2826 148.281 10.9294 149.655 9.38789C150.957 7.92878 152.603 6.36376 154.664 4.95171C156.76 3.51613 159.282 2.23352 162.266 1.37453C164.836 0.633205 167.666 0.233126 170.425 0.080154C173.611 -0.0963518 176.749 0.0330858 179.295 0.327262C181.829 0.633206 183.949 1.12742 185.879 1.80991C187.88 2.51593 189.514 3.3867 191.066 4.4222C192.664 5.48123 194.227 6.74031 195.601 8.36416C197.069 10.0821 198.289 12.1532 199.083 14.7301C199.829 17.1894 200.148 20.0253 199.935 22.7435C199.722 25.4146 199.011 28.1328 197.721 30.4745C196.323 33.0279 194.405 34.9224 191.883 36.6286C189.893 37.9701 187.62 39.1232 184.86 40.4647C181.367 42.1591 180.609 42.5239 179.768 42.924C175.648 44.8891 171.242 47.0072 168.412 48.4663C166.304 49.5606 164.729 50.4549 163.557 51.2433C162.716 51.8081 162.1 52.3376 161.603 52.9025C161.2 53.3614 160.893 53.8438 160.668 54.3498C160.395 54.9499 160.194 55.6206 160.052 56.3502H199.994V70H145.806L145.901 63.0927C145.924 61.5042 145.948 59.9156 146.019 58.6565C146.114 56.9974 146.28 55.3735 146.576 53.8203C146.919 52.0552 147.428 50.3608 148.163 48.7487C148.944 47.0189 149.963 45.4186 151.253 43.9477C152.449 42.5828 153.906 41.3237 155.883 39.994C157.529 38.8879 159.519 37.7465 162.077 36.4168C165.724 34.5223 169.904 32.5219 173.8 30.6627L178.833 28.2622C181.095 27.1561 182.93 26.2501 184.197 25.3911C188.034 22.3787 186.803 17.9896 183.428 15.7539C181.557 14.5066 179.887 14.1653 177.672 13.8947C175.754 13.6711 173.445 13.5652 171.171 13.6946C169.324 13.8005 167.536 14.0359 166.067 14.4595C164.646 14.8713 163.439 15.4832 162.432 16.1775C161.39 16.8953 160.549 17.6837 159.886 18.425C159.306 19.0839 158.844 19.7547 158.429 20.4489C158.015 21.1549 157.968 21.2491 157.601 22.0492L146.007 14.5654L146.031 14.5419Z" fill="#0D54C9"/>
<path d="M120.513 69.9962V24.363L103.803 47.3154H97.4871L80.7658 24.363V69.9962H67.0966V1.26889H80.7658L100.645 28.5566L120.513 1.26889H134.194V69.9962H120.513Z" fill="#0D54C9"/>
</svg>
